<svg width="137" height="137" viewBox="0 0 137 137" fill="none" xmlns="http://www.w3.org/2000/svg">
<mask id="mask0" mask-type="alpha" maskUnits="userSpaceOnUse" x="0" y="0" width="137" height="137">
<rect x="0.115723" y="0.5" width="136" height="136" fill="white"/>
</mask>
<g mask="url(#mask0)">
<path d="M81.1625 77.5645C79.7208 76.7535 76.4049 74.9154 74.6749 74.0504C74.0283 73.7271 73.6511 73.5951 73.4557 73.5472C73.2627 73.575 73.186 73.4811 73.4557 73.5472C73.497 73.5412 73.5438 73.5297 73.5936 73.5098C75.666 74.1405 80.4596 74.8073 81.9733 76.7535C83.4871 78.6998 84.0457 84.6828 84.4062 87.0255L81.1625 77.5645Z" fill="white"/>
<path d="M81.1623 77.5646C70.3497 69.347 61.3392 74.3208 58.1855 77.8349V80.8082C63.8208 80.6674 74.297 82.6291 78.9998 81.3489C80.3127 80.9915 80.9264 78.0365 81.1623 77.5646Z" fill="#A7B1DF"/>
<path d="M63.0514 74.3203C61.6998 74.7708 58.1858 76.4828 57.1045 79.9969C58.9967 75.9422 62.0603 75.0412 63.0514 74.3203Z" fill="white"/>
<path d="M73.3233 13.6273C61.3914 12.2992 62.0062 21.7436 64.1757 24.303C63.3621 35.1632 64.3926 55.6594 64.1757 55.6594C63.9045 55.6594 58.4793 66.956 80.0812 69.3122C88.1088 70.1877 94.2897 58.7639 91.975 52.8229C82.9365 62.278 88.9146 39.4434 90.4713 32.6038C93.8673 17.6825 88.2381 15.2875 73.3233 13.6273Z" fill="#172070"/>
<mask id="mask1" mask-type="alpha" maskUnits="userSpaceOnUse" x="62" y="13" width="31" height="57">
<path d="M73.3233 13.6273C61.3914 12.2992 62.0062 21.7436 64.1757 24.303C63.3621 35.1632 64.3926 55.6594 64.1757 55.6594C63.9045 55.6594 58.4793 66.956 80.0812 69.3122C88.1088 70.1877 94.2897 58.7639 91.975 52.8229C82.9365 62.278 88.9146 39.4434 90.4713 32.6038C93.8673 17.6825 88.2381 15.2875 73.3233 13.6273Z" fill="#172070"/>
</mask>
<g mask="url(#mask1)">
<path d="M81.2767 65.6711C84.088 66.5362 86.9533 62.6076 88.0346 60.5352C86.9533 61.1659 84.3583 62.7517 82.6283 64.0493C80.8983 65.3468 79.2945 62.968 79.1143 61.6164C78.3934 62.6076 78.4654 64.8061 81.2767 65.6711Z" fill="url(#paint0_linear)"/>
<path d="M74.4045 17.4111C68.782 16.1136 64.3128 17.9517 62.781 19.033C60.1679 20.4747 54.5634 23.8987 53.0496 26.0612C51.1574 28.7643 67.6466 70.3929 67.917 71.7444C68.1873 73.096 84.6765 73.907 92.2453 73.6366C98.3004 73.4204 96.3901 59.6704 94.6782 52.8224C81.4145 77.2554 82.9755 43.9645 87.65 32.2784C89.8125 26.8721 81.4327 19.033 74.4045 17.4111Z" fill="url(#paint1_linear)"/>
</g>
<path d="M86.4221 45.1619C84.8118 44.0903 82.6043 46.8755 81.9736 48.2271L81.1626 57.6882C83.8107 55.7967 91.4345 48.4974 86.4221 45.1619Z" fill="#FF9C94"/>
<path d="M86.1122 46.9624C85.4864 46.7911 84.1735 49.6079 83.5952 51.0378C84.0225 50.5008 84.9434 49.389 85.2091 49.2375C85.4748 49.086 85.682 50.5814 85.7524 51.3481L86.134 48.9302L87.0341 49.7371C86.9875 48.8836 86.7379 47.1337 86.1122 46.9624Z" fill="#E87172"/>
<mask id="mask2" mask-type="alpha" maskUnits="userSpaceOnUse" x="81" y="44" width="8" height="14">
<path d="M86.4221 45.1619C84.8118 44.0903 82.6043 46.8755 81.9736 48.2271L81.1626 57.6882C83.8107 55.7967 91.4345 48.4974 86.4221 45.1619Z" fill="#F39089"/>
</mask>
<g mask="url(#mask2)">
<path d="M86.0281 45.5246C86.6769 45.3084 87.9203 47.6871 88.4609 48.2278L87.3797 45.5246L85.4875 44.4434L83.8656 45.5246L81.9734 47.4169L81.4327 49.8497C83.5953 49.8497 85.3793 45.7409 86.0281 45.5246Z" fill="url(#paint2_linear)"/>
</g>
<path d="M74.9101 74.8009L73.9973 62.5022L61.5331 67.729L62.4543 75.8262C62.5805 76.9354 62.0118 78.008 61.023 78.5261L54.7043 81.8367L66.9512 96.2229L84.0167 81.2226L76.3006 76.968C75.5007 76.5269 74.9777 75.7118 74.9101 74.8009Z" fill="#FFA79D"/>
<mask id="mask3" mask-type="alpha" maskUnits="userSpaceOnUse" x="54" y="62" width="31" height="35">
<path d="M74.9101 74.8009L73.9973 62.5022L61.5331 67.729L62.4543 75.8262C62.5805 76.9354 62.0118 78.008 61.023 78.5261L54.7043 81.8367L66.9512 96.2229L84.0167 81.2226L76.3006 76.968C75.5007 76.5269 74.9777 75.7118 74.9101 74.8009Z" fill="#FFA79D"/>
</mask>
<g mask="url(#mask3)">
<path d="M76.2201 67.6897C69.4025 74.7227 62.9871 75.7246 61.2534 74.8336L59.6049 72.3005L63.8653 69.0952L73.8817 63.8749C74.4312 64.7192 75.9757 65.5411 76.2201 67.6897Z" fill="#E87172"/>
</g>
<path d="M67.917 50.6594L76.8374 49.5781" stroke="black" stroke-width="0.54063"/>
<path d="M51.4278 49.8498C51.9684 47.6873 50.0761 45.5248 50.3464 41.1997C50.5564 37.84 53.8172 31.6646 55.4825 29.3059C58.3242 28.6073 64.9975 28.2246 69.5388 28.2246C75.2154 28.2246 79.8108 33.9012 81.703 39.8482C83.5952 45.7951 81.4327 57.4186 80.3514 60.9327C79.2702 64.4468 66.8357 73.0969 62.781 72.5563C58.7262 72.0157 52.5089 63.9062 50.3464 60.3921C48.1839 56.878 50.8872 52.0123 51.4278 49.8498Z" fill="url(#paint3_linear)"/>
<path d="M60.6186 55.7958C61.4836 55.3633 61.5197 53.4531 61.4296 52.552C61.6999 52.0114 62.7811 51.4707 62.7811 52.552C62.7811 53.417 63.9525 56.787 64.403 58.2287C64.3129 58.2287 63.7002 58.0124 63.0515 58.2286C62.2405 58.4989 60.3483 58.4989 59.8077 57.9583C59.267 57.4177 59.5374 56.3364 60.6186 55.7958Z" fill="url(#paint4_linear)"/>
<mask id="mask4" mask-type="alpha" maskUnits="userSpaceOnUse" x="49" y="28" width="34" height="45">
<path d="M51.4278 49.8498C51.9684 47.6873 50.0761 45.5248 50.3464 41.1997C50.5564 37.84 53.8172 31.6646 55.4825 29.3059C58.3242 28.6073 64.9975 28.2246 69.5388 28.2246C75.2154 28.2246 79.8108 33.9012 81.703 39.8482C83.5952 45.7951 81.4327 57.4186 80.3514 60.9327C79.2702 64.4468 66.8357 73.0969 62.781 72.5563C58.7262 72.0157 52.5089 63.9062 50.3464 60.3921C48.1839 56.878 50.8872 52.0123 51.4278 49.8498Z" fill="url(#paint5_linear)"/>
</mask>
<g mask="url(#mask4)">
<path d="M60.7152 44.2005C60.9314 44.633 61.4294 49.3071 61.4294 51.7399C61.6998 52.5509 61.6883 51.9021 59.0933 53.6321C55.8495 55.7947 51.1574 53.1209 50.6168 52.0397C50.0762 50.9584 50.3465 49.3071 50.6168 48.2258C50.8613 47.248 51.0674 45.6128 50.6168 44.7117C53.0497 44.1711 58.6608 43.1733 59.0933 43.3896C59.6339 43.6599 60.4449 43.6599 60.7152 44.2005Z" fill="#F38F89" fill-opacity="0.8"/>
<path d="M65.7544 43.361C65.5382 43.7935 64.9435 48.7674 64.9435 51.2002C64.6732 52.0111 63.4297 52.714 66.0248 54.444C69.2685 56.6065 76.8374 52.5518 77.3781 51.4705C77.9187 50.3893 78.1889 47.4158 77.9186 46.3346C77.6741 45.3567 75.3387 46.1553 75.7893 45.2543C73.3564 44.7137 67.7453 43.7159 67.3128 43.9321C66.7722 44.2024 66.0248 42.8204 65.7544 43.361Z" fill="#F38F89" fill-opacity="0.5"/>
</g>
<path d="M55.4824 60.6624C55.6987 60.2299 56.1131 60.8426 56.2934 61.2031C61.4294 62.8249 67.6466 61.4734 69.2685 60.9327C69.8091 60.3921 70.3498 60.3921 70.6201 60.9327C70.8363 61.3652 69.9893 61.4734 69.5388 61.4734C68.007 63.1854 65.4841 66.8797 61.97 66.339C59.8075 66.0063 57.0142 62.7348 56.2934 61.4734C55.9329 61.2932 55.2662 61.0949 55.4824 60.6624Z" fill="#E87172"/>
<path d="M67.9201 47.3309C65.7551 48.2932 65.2139 51.3402 65.2139 52.7434L67.6194 49.1351L69.7243 47.9323L73.3326 48.233L75.4374 48.5337C73.8337 47.7319 70.0851 46.3687 67.9201 47.3309Z" fill="url(#paint6_linear)"/>
<path d="M65.2139 52.743C66.5169 52.8432 69.4236 53.9458 72.7312 53.3444C74.6716 52.9916 75.4319 50.2449 75.4374 49.1347L65.2139 52.743Z" fill="#000A63"/>
<path d="M68.8222 48.2331C66.8977 48.9547 65.8153 51.5407 65.2139 52.7435C67.1183 53.0442 71.2879 53.5564 72.7312 53.0753C74.1745 52.5942 75.1367 50.0684 75.4374 48.8657C73.8337 48.4648 70.7466 47.5114 68.8222 48.2331Z" fill="#FFEBED"/>
<path d="M67.6194 50.638C67.6194 51.961 68.7019 53.0435 70.0249 53.0435C71.348 53.0435 72.4305 51.961 72.4305 50.638C72.4305 49.3149 71.348 48.2324 70.0249 48.2324C68.7019 48.2324 67.6194 49.3149 67.6194 50.638Z" fill="#8D4035"/>
<path d="M70.0249 52.2817C70.9327 52.2817 71.6687 51.5458 71.6687 50.6379C71.6687 49.7301 70.9327 48.9941 70.0249 48.9941C69.1171 48.9941 68.3811 49.7301 68.3811 50.6379C68.3811 51.5458 69.1171 52.2817 70.0249 52.2817Z" fill="url(#paint7_linear)"/>
<path d="M68.1808 52.7644C67.9402 52.4837 68.8624 51.3611 69.2633 51.6418C69.7043 51.9224 68.5416 53.1653 68.1808 52.7644ZM71.0674 49.3164C70.7868 49.3164 70.5463 49.557 70.5463 49.8376C70.5463 50.1183 70.7868 50.3588 71.0674 50.3588C71.3481 50.3588 71.5887 50.1183 71.5887 49.8376C71.5887 49.557 71.3882 49.3164 71.0674 49.3164Z" fill="white"/>
<path d="M67.6741 49.0387C66.6738 50.0215 65.5146 52.1413 65.2139 52.7426C65.5783 51.402 66.854 48.2961 69.0409 47.8011C71.2277 47.3061 74.1435 48.0074 75.3281 48.4199L77.2416 47.9316C76.786 48.4472 75.7655 49.6574 75.3281 49.6574C74.7814 49.6574 70.025 46.7288 67.6741 49.0387Z" fill="#000A63"/>
<path d="M65.8637 43.1936C70.4109 42.1405 74.8146 43.2893 77.5429 46.975C75.5325 45.8262 73.3786 45.1561 70.8896 44.9167C69.7887 44.821 67.6347 45.6347 66.6774 45.2039C65.7201 44.7253 65.7679 44.1988 65.8637 43.1936Z" fill="#131163"/>
<path d="M54.131 37.8298C53.6985 39.776 51.608 42.7855 50.6169 44.047C50.2565 43.5965 49.6437 42.1007 50.0762 39.7219C50.6169 36.7485 54.131 32.6938 55.7529 31.3422C57.3748 29.9906 73.3233 31.0719 75.7562 33.2344C78.189 35.3969 80.3515 50.5346 80.3515 51.8862C80.3515 53.2377 77.1078 48.1017 77.1078 46.7502C77.1078 45.3986 74.9452 44.5876 72.5124 43.5064C70.0796 42.4251 71.1608 39.4517 69.5389 38.6407C67.917 37.8298 67.917 34.8563 66.0248 35.6672C64.1326 36.4782 60.0779 36.4782 58.1857 35.1266C56.2935 33.775 54.6716 35.3969 54.131 37.8298Z" fill="url(#paint8_linear)"/>
<path d="M58.2184 47.5162C60.1644 48.3811 60.6509 51.1198 60.6509 52.3811L58.4887 49.1378L56.5968 48.0567L53.3536 48.327L51.4617 48.5973C52.9031 47.8766 56.2725 46.6513 58.2184 47.5162Z" fill="url(#paint9_linear)"/>
<path d="M60.6509 52.3816C59.4797 52.4717 57.1347 53.4754 54.1617 52.9348C52.4177 52.6177 51.4667 50.1362 51.4617 49.1384L60.6509 52.3816Z" fill="#000A63"/>
<path d="M57.4076 48.3276C59.1374 48.9763 60.1103 51.3007 60.6509 52.3817C58.9392 52.652 55.1914 53.1124 53.8941 52.68C52.5968 52.2476 51.7319 49.9773 51.4617 48.8962C52.9031 48.5359 55.6779 47.679 57.4076 48.3276Z" fill="#FFEBED"/>
<path d="M54.1646 50.4903C54.1646 51.6795 55.1375 52.6525 56.3267 52.6525C57.5159 52.6525 58.4889 51.6795 58.4889 50.4903C58.4889 49.3011 57.5159 48.3281 56.3267 48.3281C55.1375 48.3281 54.1646 49.3011 54.1646 50.4903Z" fill="#8D4035"/>
<path d="M56.3266 51.9667C57.1426 51.9667 57.8041 51.3052 57.8041 50.4892C57.8041 49.6732 57.1426 49.0117 56.3266 49.0117C55.5106 49.0117 54.8491 49.6732 54.8491 50.4892C54.8491 51.3052 55.5106 51.9667 56.3266 51.9667Z" fill="url(#paint10_linear)"/>
<path d="M54.669 52.3999C54.4528 52.1476 55.2816 51.1386 55.642 51.3909C56.0384 51.6431 54.9933 52.7603 54.669 52.3999ZM57.2636 49.3008C57.0113 49.3008 56.7951 49.517 56.7951 49.7693C56.7951 50.0215 57.0113 50.2377 57.2636 50.2377C57.5159 50.2377 57.7321 50.0215 57.7321 49.7693C57.7321 49.517 57.5519 49.3008 57.2636 49.3008Z" fill="white"/>
<path d="M58.4396 49.0525C59.3387 49.9359 60.3806 51.8412 60.6509 52.3817C60.3233 51.1767 59.1767 48.3851 57.2111 47.9401C55.2455 47.4952 52.6246 48.1255 51.5599 48.4963L49.84 48.0574C50.2495 48.5209 51.1668 49.6087 51.5599 49.6087C52.0513 49.6087 56.3265 46.9763 58.4396 49.0525Z" fill="#000A63"/>
<path d="M59.9115 43.8457C56.4928 42.2248 52.8295 42.7463 50.0762 45.9372C51.8501 45.0971 53.6596 44.7376 55.6635 44.8382C56.5482 44.8925 58.1163 45.9639 58.9421 45.676C59.7757 45.3419 59.8236 44.8277 59.9115 43.8457Z" fill="#131163"/>
<path d="M60.3482 56.0653C61.7303 55.3431 61.6097 52.7314 61.4295 51.7402C63.0514 53.9028 60.2784 56.6059 60.0081 57.1465C59.7378 57.6872 60.0081 57.9575 60.8191 58.2278C61.63 58.4981 62.9816 57.9575 63.5222 57.9575C63.9547 57.9575 64.2431 58.1377 64.3332 58.2278C63.7024 58.5882 62.1707 59.255 61.0894 59.0387C59.7378 58.7684 58.796 56.8762 60.3482 56.0653Z" fill="#E87172"/>
<path d="M58.4559 63.636C56.7259 61.9059 56.6538 61.5635 56.5637 61.4734C61.5375 62.9872 66.9258 61.8339 69.2685 61.2031C68.818 61.8339 67.3223 63.4738 64.9435 64.9875C61.97 66.8797 60.6184 65.7985 58.4559 63.636Z" fill="white"/>
<path d="M63.3216 68.7707C62.4566 68.987 61.159 68.3202 60.6184 67.9598C60.8887 67.9598 61.6997 68.0138 62.7809 68.2301C63.8622 68.4463 64.6731 67.9598 64.9434 67.6895C64.7632 67.9598 64.1866 68.5545 63.3216 68.7707Z" fill="#E87172"/>
<path d="M75.6019 58.9926C77.3901 58.5135 78.5703 57.1197 78.238 55.8796C77.9057 54.6394 76.1867 54.0225 74.3986 54.5016C72.6105 54.9807 71.4303 56.3745 71.7626 57.6146C72.0949 58.8548 73.8138 59.4717 75.6019 58.9926Z" fill="#E87172" fill-opacity="0.5"/>
<path d="M52.2633 58.1483C50.7569 57.7446 49.7627 56.5705 50.0426 55.5257C50.3226 54.4809 51.7707 53.9612 53.2771 54.3649C54.7835 54.7685 55.7777 55.9426 55.4978 56.9874C55.2178 58.0322 53.7697 58.5519 52.2633 58.1483Z" fill="#E87172" fill-opacity="0.5"/>
<path d="M83.5954 43.2351C82.5141 47.8305 83.325 47.6875 80.3516 52.0126C80.1681 47.7309 76.2665 37.5973 74.9453 36.2761C73.2938 34.6246 70.3616 31.9989 68.1874 33.0905C61.8426 36.2761 59.267 34.0741 57.3748 32.8202C55.178 32.1168 51.5979 37.2222 51.1575 37.9562C50.6071 38.8737 50.3466 45.5042 50.3466 44.5867C50.3466 43.6692 49.7317 39.3956 49.5482 36.2761C48.7746 23.1247 64.3785 21.5075 72.5124 23.6294C75.8888 24.5102 83.3119 32.0556 83.8624 34.0741C84.7188 35.7868 85.027 37.1507 83.5954 43.2351Z" fill="#172070"/>
<path d="M65.2138 86.2145C62.4025 86.647 61.7898 80.9884 61.6997 78.1051L60.6184 78.6457V80.8082C60.8887 82.5202 62.0781 86.2145 64.6731 87.2958C67.2682 88.3771 74.6748 81.439 77.9186 77.8348L77.3779 77.5645C74.5847 80.3577 68.7279 85.6739 65.2138 86.2145Z" fill="#78A1FF"/>
<mask id="mask5" mask-type="alpha" maskUnits="userSpaceOnUse" x="49" y="22" width="36" height="31">
<path d="M83.8622 44.4438C82.781 49.0391 83.3248 47.6875 80.3514 52.0126C80.1679 47.7309 76.2663 37.5973 74.9451 36.2761C73.2936 34.6246 70.3614 31.9989 68.1872 33.0905C61.8424 36.2761 59.2668 34.0741 57.3746 32.8202C55.1778 32.1168 51.5977 37.2222 51.1573 37.9562C50.6068 38.8737 49.2651 43.1987 49.2651 42.2812C49.2651 41.3637 49.7315 39.3956 49.548 36.2761C48.7744 23.1247 64.3783 21.5075 72.5122 23.6294C75.8886 24.5102 83.3117 32.0556 83.8622 34.0741C84.7186 35.7868 85.2939 38.3593 83.8622 44.4438Z" fill="#172070"/>
</mask>
<g mask="url(#mask5)">
<path d="M68.4577 28.4961C65.6464 28.2798 62.6009 31.1091 61.4295 32.5508C60.4384 31.4696 58.1317 29.3611 56.8342 29.5774C55.5367 29.7936 53.8607 34.9837 53.3201 36.3353C53.6805 35.8847 55.2663 32.659 57.6451 33.0915C60.0239 33.524 72.5124 43.003 78.4594 47.6885L80.0813 45.526C80.4417 44.8051 80.9463 42.985 80.0813 41.4712C79 39.579 76.0265 36.3353 76.0265 33.9024C76.0265 31.4696 71.9718 28.7664 68.4577 28.4961Z" fill="url(#paint11_linear)"/>
<path d="M67.6468 30.3876C65.6045 30.5821 63.0515 31.7392 61.9702 32.8205C61.0692 32.3699 58.8346 31.4148 57.1046 31.1986C54.942 30.9283 51.4279 38.4971 52.2388 40.6596C52.8876 42.3896 71.0708 39.6685 75.2156 38.2268C75.1255 37.2356 73.3234 29.847 67.6468 30.3876Z" fill="url(#paint12_linear)"/>
</g>
<path d="M60.503 33.3843C60.0216 33 59.4277 32.7288 58.8352 32.5663C58.216 32.4112 57.5645 32.347 56.9074 32.3662C56.2502 32.3853 55.5946 32.5132 54.9671 32.7424C54.3396 32.9715 53.7403 33.3019 53.2367 33.7694C52.2562 34.6969 51.608 35.8866 51.2552 37.1032C51.0753 37.6989 50.9292 38.3124 50.8098 38.9185C50.6834 39.4992 50.5499 40.0547 50.3827 40.5922C50.2154 41.1298 49.9539 41.639 49.6712 42.0723C49.3618 42.513 48.9848 42.918 48.5262 43.2365C48.4067 43.3244 48.3138 43.4048 48.1872 43.4673C48.0606 43.5298 47.941 43.6176 47.7877 43.6876C47.5147 43.8453 47.2151 44.0106 46.9492 44.1936C46.3907 44.5673 45.8196 44.999 45.4525 45.6467C45.2824 45.9668 45.146 46.3048 45.1039 46.6712C45.0618 47.0375 45.0929 47.3562 45.1578 47.6928C45.2804 48.3407 45.5156 48.8754 45.6101 49.4219C45.6975 49.9432 45.6316 50.5344 45.2546 50.9393C45.083 51.1508 44.8031 51.2832 44.5146 51.2816C44.2332 51.3054 43.9236 51.2279 43.7124 50.9865C43.8504 51.2755 44.1544 51.4364 44.5105 51.4738C44.8397 51.5185 45.214 51.4144 45.4996 51.1985C46.0637 50.7415 46.2618 50.0044 46.2334 49.3849C46.2248 48.7326 46.029 48.1324 45.995 47.5962C45.978 47.3282 45.961 47.0601 46.0116 46.8278C46.0622 46.5955 46.1732 46.3736 46.3181 46.1697C46.6078 45.7617 47.0327 45.4253 47.5518 45.1171C47.798 44.9668 48.0779 44.8343 48.3579 44.7019C48.4845 44.6394 48.6379 44.5694 48.8109 44.4667C48.9643 44.3968 49.1106 44.3015 49.2569 44.2062C49.8421 43.8252 50.3654 43.3249 50.7268 42.7606C51.115 42.1889 51.4088 41.5888 51.5817 40.9679C51.7883 40.3648 51.9007 39.7334 52.02 39.1273C52.1127 38.5287 52.2124 37.9553 52.3459 37.3999C52.6396 36.2816 53.0951 35.2273 53.8616 34.3593C54.6085 33.5241 55.796 33.03 56.9878 32.8621C58.1458 32.6763 59.415 32.7868 60.503 33.3843Z" fill="url(#paint13_linear)"/>
<path d="M65.0677 31.911C65.6154 31.5731 66.2551 31.369 66.874 31.2785C67.5183 31.1994 68.1785 31.2198 68.8296 31.3284C69.4806 31.4369 70.1109 31.6592 70.6951 31.9837C71.2794 32.3083 71.8175 32.7351 72.236 33.2927C73.0476 34.3963 73.4819 35.73 73.617 37.052C73.6903 37.7002 73.7268 38.3626 73.738 39.0136C73.7608 39.6391 73.795 40.2389 73.8661 40.8246C73.9371 41.4103 74.1071 41.979 74.3116 42.471C74.5415 42.9744 74.8449 43.4493 75.2451 43.8448C75.3486 43.9529 75.4267 44.0497 75.5417 44.1322C75.6567 44.2147 75.7602 44.3228 75.9005 44.4168C76.1443 44.6188 76.4134 44.8322 76.6456 45.0598C77.1355 45.5265 77.6276 46.0556 77.878 46.7836C77.9906 47.1419 78.0663 47.5143 78.0432 47.9038C78.02 48.2932 77.9324 48.6229 77.808 48.9668C77.5707 49.629 77.2415 50.1575 77.0503 50.7174C76.8706 51.2517 76.8312 51.8799 77.1347 52.3549C77.268 52.5995 77.5233 52.776 77.8109 52.8132C78.0869 52.8759 78.409 52.8364 78.6622 52.612C78.4734 52.8962 78.1421 53.0238 77.7809 53.015C77.445 53.0176 77.0907 52.8581 76.8447 52.5935C76.3641 52.0388 76.2977 51.2399 76.4361 50.5947C76.5606 49.9125 76.8623 49.31 76.9914 48.753C77.0559 48.4744 77.1205 48.1959 77.1114 47.9457C77.1023 47.6955 77.0311 47.4481 76.923 47.2149C76.707 46.7485 76.3437 46.3389 75.8814 45.9462C75.6629 45.7555 75.4076 45.5791 75.1523 45.4026C75.0374 45.3201 74.8971 45.2262 74.743 45.0953C74.6027 45.0013 74.4739 44.8818 74.3451 44.7623C73.83 44.2843 73.3977 43.6898 73.138 43.05C72.853 42.3988 72.667 41.7305 72.6052 41.0567C72.5065 40.3971 72.5069 39.7205 72.4957 39.0695C72.5097 38.4299 72.5123 37.8158 72.4781 37.216C72.3843 36.0048 72.118 34.8391 71.5087 33.8265C70.9133 32.851 69.8185 32.1735 68.6614 31.8371C67.5411 31.4865 66.2574 31.4315 65.0677 31.911Z" fill="#172070"/>
<path d="M61.4634 33.2014C61.3346 32.3501 61.5923 31.4722 61.8929 30.6475C62.2794 29.7962 62.7947 28.9981 63.5676 28.2C63.9971 27.8009 64.4694 27.4285 65.1995 27.1093C65.8865 26.79 66.7454 26.5772 67.776 26.6038C68.0337 26.6038 68.2913 26.6304 68.506 26.657C68.7637 26.7102 68.9784 26.7634 69.1931 26.8166C69.6655 26.9496 70.009 27.1359 70.3526 27.3487C70.9538 27.7743 71.3403 28.2266 71.5979 28.7055C71.8556 29.1843 71.9414 29.7164 71.9844 30.142C71.9844 30.5943 71.9844 31.0465 71.8985 31.4722C71.7697 32.3501 71.512 33.1748 71.2544 33.9995C70.9967 34.8242 70.782 35.5957 70.782 36.3938C70.782 36.7928 70.8679 37.1653 71.0826 37.5377C71.2973 37.9102 71.6838 38.2294 72.242 38.4954C71.555 38.4156 70.9108 38.123 70.4814 37.7505C70.052 37.3781 69.7943 36.9258 69.5796 36.5002C69.2361 35.6223 69.2361 34.7178 69.322 33.8665C69.3649 33.0152 69.5367 32.1905 69.5796 31.3924C69.5796 30.9933 69.6225 30.5943 69.5796 30.2218C69.5367 29.8228 69.4937 29.5036 69.322 29.1843C69.1502 28.8651 68.8925 28.5724 68.6349 28.3596C68.3343 28.1468 68.0337 28.0404 67.6901 28.0138C67.3466 27.9872 66.8742 28.067 66.4448 28.2C66.0154 28.3596 65.5859 28.599 65.1995 28.8651C64.4265 29.4503 63.6965 30.142 63.0953 30.8603C62.4082 31.6318 61.8929 32.4033 61.4634 33.2014Z" fill="#0A1252"/>
<path d="M77.378 77.5645C63.1053 93.9996 61.3393 85.2234 61.1591 78.3754L52.509 82.4301L50.3465 93.2427L47.6433 118.923L56.2934 134.331L72.7826 128.384L85.7577 81.8895C84.4062 81.0786 79.5406 78.6458 77.3781 77.5645L77.378 77.5645Z" fill="#2566F9"/>
<path d="M37.912 129.736C34.3633 128.405 32.776 142.441 20.3416 134.602C20.3416 134.602 20.7938 131.038 21.9634 128.114C30.0729 107.84 44.3996 85.4043 44.3996 85.4043L45.4809 113.787C44.0022 116.93 41.4608 131.067 37.912 129.736Z" fill="#DBE1EB"/>
<path d="M81.9455 80.0246L91.9264 83.9061L85.4874 139.355C85.4874 139.355 91.7314 148.022 94.1375 154.334C97.2224 162.426 97.6516 176.229 97.6516 176.229H41.1558L47.0125 139.355L44.1292 85.6735L58.1856 79.7266L58.6568 118.285L81.9455 80.0246Z" fill="#DBE1EB"/>
<path d="M48.4543 119.192L46.8324 98.9189L44.6699 92.4313L50.3465 102.974L52.7794 87.8359L57.1044 98.1079L53.8606 119.192H48.4543Z" fill="url(#paint14_linear)"/>
<path d="M66.0249 98.649C63.2136 98.649 61.2493 85.4036 60.0779 78.916L57.6451 79.9973L56.0232 94.5943V110.813L60.3482 113.787L71.7015 96.7568C70.9806 97.3875 68.8361 98.649 66.0249 98.649Z" fill="url(#paint15_linear)" fill-opacity="0.5"/>
<path d="M117.925 124.599C122.805 117.945 103.904 94.3166 91.7048 83.7812L89.0016 107.839L102.788 120.274L84.718 143.791L91.3719 151.554C99.5045 144.9 113.046 131.253 117.925 124.599Z" fill="#DBE1EB"/>
<path d="M80.3515 94.8654L87.9203 86.4856L82.514 79.998L67.3763 106.759L47.373 137.845L41.1558 176.501H62.2403L77.9186 144.874L68.7279 122.978L80.3515 102.975V94.8654Z" fill="url(#paint16_linear)"/>
<path d="M52.2388 88.1895L58.1857 77.8359L57.869 116.04L56.9306 122.168L52.708 104.9L55.0539 94.8737L52.2388 88.1895Z" fill="white"/>
<path d="M77.6761 100.029L56.6054 123.318L54.9419 119.991L81.003 77.2949C81.003 77.2949 83.0104 79.4354 83.8656 81.0793C84.9213 83.1085 85.439 86.7213 85.439 86.7213L76.0126 93.9297L77.6761 100.029Z" fill="white"/>
<mask id="mask6" mask-type="alpha" maskUnits="userSpaceOnUse" x="86" y="83" width="33" height="68">
<path d="M117.925 124.599C122.805 117.945 103.903 94.3166 91.7046 83.7812L89.0015 107.839L102.788 120.274L86.8782 141.088L91.7438 150.549C99.8764 143.895 113.046 131.253 117.925 124.599Z" fill="#DBE1EB"/>
</mask>
<g mask="url(#mask6)">
<path d="M115.222 116.76C115.006 114.165 100.175 94.5938 92.7859 85.1328L108.194 92.161L121.169 122.977L98.4625 145.683C104.139 137.123 115.438 119.355 115.222 116.76Z" fill="url(#paint17_linear)"/>
<path d="M103.869 115.679C102.355 114.165 95.6695 100.902 91.7048 94.3242L85.2173 118.382V147.306C90.1731 140.728 100.787 124.059 101.436 122.978C102.085 121.896 106.212 118.743 108.194 117.301C107.383 117.391 105.383 117.193 103.869 115.679Z" fill="url(#paint18_linear)" fill-opacity="0.2"/>
<path d="M91.4343 151.362L97.1109 150.01C97.1109 150.01 92.5053 145.256 91.4343 141.36C90.511 138.001 91.4343 132.439 91.4343 132.439L86.2983 140.008L91.4343 151.362Z" fill="url(#paint19_linear)"/>
</g>
<path d="M26.8291 126.491C28.5592 123.247 34.9386 114.417 35.2089 110.002L40.6152 128.383L22.7744 131.897C23.4051 131.447 25.0991 129.735 26.8291 126.491Z" fill="url(#paint20_linear)"/>
<path d="M58.9966 105.678L29.5322 108.381L29.8025 108.922L72.5123 141.359L72.7826 139.467L58.9966 105.678Z" fill="url(#paint21_linear)"/>
<path d="M43.3183 144.064L29.5322 108.382L58.7263 106.49L72.5123 141.361L43.3183 144.064Z" fill="#6E7DF1"/>
<path d="M52.2388 111.085L39.2636 112.166L36.8308 106.489L37.3714 106.219L49.8059 105.408L52.2388 111.085Z" fill="url(#paint22_linear)"/>
<path d="M38.9933 111.627L36.8308 106.491L49.5356 105.68L51.6981 110.545L38.9933 111.627Z" fill="#F6F8FA"/>
<mask id="mask7" mask-type="alpha" maskUnits="userSpaceOnUse" x="29" y="106" width="44" height="39">
<path d="M43.3183 144.064L29.5322 108.382L58.7263 106.49L72.5123 141.361L43.3183 144.064Z" fill="#2566F9"/>
</mask>
<g mask="url(#mask7)">
<path d="M56.8341 130.818C48.184 130.818 30.0729 110.004 29.262 108.652V113.788L42.2371 145.956L73.3233 141.36L69.8092 122.438C68.0972 123.339 66.2951 130.818 56.8341 130.818Z" fill="url(#paint23_linear)"/>
</g>
<path d="M66.4638 126.051C64.776 126.861 57.1991 128.309 53.6216 128.931L51.7676 122.13C52.5294 121.844 54.2104 121.19 54.8399 120.859C55.6268 120.444 55.5338 120.284 55.7358 119.011C55.9378 117.737 58.228 115.636 59.338 114.819C60.4481 114.003 60.9434 112.645 61.4335 111.204C61.9237 109.763 63.2625 110.741 63.5043 111.157C63.7461 111.573 63.6713 113.286 62.171 114.757C60.6708 116.229 61.4321 116.728 61.895 117.23C62.2653 117.632 62.9029 116.901 63.1755 116.486L62.951 115.289C64.3968 114.977 67.4759 114.484 68.2255 115.008C68.9751 115.531 68.2878 117.055 67.8504 117.752C68.0436 118.011 68.4481 118.604 68.52 118.904C68.592 119.205 68.4243 119.845 68.3314 120.127C68.486 120.123 68.8344 120.212 68.9915 120.6C69.1486 120.988 69.0449 121.625 68.9733 121.895C69.0598 122.216 69.2465 122.97 69.3012 123.418C69.3695 123.977 68.5736 125.039 66.4638 126.051Z" fill="url(#paint24_linear)"/>
<mask id="mask8" mask-type="alpha" maskUnits="userSpaceOnUse" x="51" y="110" width="19" height="19">
<path d="M66.4638 126.051C64.776 126.861 57.1991 128.309 53.6216 128.931L51.7676 122.13C52.5294 121.844 54.2104 121.19 54.8399 120.859C55.6268 120.444 55.5338 120.284 55.7358 119.011C55.9378 117.737 58.228 115.636 59.338 114.819C60.4481 114.003 60.9434 112.645 61.4335 111.204C61.9237 109.763 63.2625 110.741 63.5043 111.157C63.7461 111.573 63.6713 113.286 62.171 114.757C60.6708 116.229 61.4321 116.728 61.895 117.23C62.2653 117.632 62.9029 116.901 63.1755 116.486L62.951 115.289C64.3968 114.977 67.4759 114.484 68.2255 115.008C68.9751 115.531 68.2878 117.055 67.8504 117.752C68.0436 118.011 68.4481 118.604 68.52 118.904C68.592 119.205 68.4243 119.845 68.3314 120.127C68.486 120.123 68.8344 120.212 68.9915 120.6C69.1486 120.988 69.0449 121.625 68.9733 121.895C69.0598 122.216 69.2465 122.97 69.3012 123.418C69.3695 123.977 68.5736 125.039 66.4638 126.051Z" fill="url(#paint25_linear)"/>
</mask>
<g mask="url(#mask8)">
<path d="M64.4811 116.669C63.7969 116.553 66.5435 115.257 68.0024 114.623L69.0146 114.891L71.289 122.048C70.3427 122.889 68.9829 124.114 68.0738 124.971C67.983 125.255 67.7718 125.543 67.3624 125.828C66.793 126.224 67.2469 125.75 68.0738 124.971C68.3144 124.219 67.7108 123.499 67.7137 122.969C68.0585 122.384 67.2093 121.806 67.1596 121.279C67.5454 120.027 66.2667 119.742 66.4173 118.97C66.5678 118.197 65.3363 116.814 64.4811 116.669Z" fill="url(#paint26_linear)"/>
<path d="M60.928 114.328C62.2255 113.679 62.1894 111.355 62.0093 110.273L64.7125 110.544L62.8203 115.95C62.64 116.491 62.1174 117.518 61.4686 117.302C60.6577 117.031 59.3061 115.139 60.928 114.328Z" fill="#F08682"/>
<path d="M62.5375 115.313L66.1821 114.437C66.1821 114.437 64.6805 115.015 63.8855 115.643C63.3928 116.032 62.7456 116.776 62.7456 116.776L62.5375 115.313Z" fill="#EC7A79"/>
<path d="M61.4686 128.138C55.7225 127.092 52.7501 123.156 51.9821 121.319C51.3622 122.806 49.9692 125.931 49.9965 126.155C50.0238 126.379 51.9467 130.174 52.9047 132.044C58.1535 131.178 67.2148 129.184 61.4686 128.138Z" fill="url(#paint27_linear)"/>
<path d="M67.2788 114.657C65.6702 115.549 62.6166 117.186 63.2699 116.601C63.9859 115.96 66.0174 114.752 66.6158 114.4L67.2788 114.657Z" fill="url(#paint28_linear)"/>
</g>
<path d="M66.5882 118.528C67.0123 118.324 67.8429 117.902 67.7726 117.84C67.6848 117.762 66.487 118.501 66.5882 118.528Z" fill="#E87373"/>
<path d="M67.3185 120.582C67.6527 120.46 68.3062 120.197 68.2464 120.126C68.1715 120.037 67.2351 120.54 67.3185 120.582Z" fill="#E87373"/>
<path d="M67.9386 122.536C68.2728 122.413 68.9264 122.15 68.8665 122.079C68.7916 121.99 67.8553 122.493 67.9386 122.536Z" fill="#E87373"/>
<path d="M55.5217 128.924C40.3231 137.314 33.3167 138.916 26.0792 138.916C17.5317 138.916 16.3317 125.612 28.8477 124.614L43.859 122.976L52.8186 121.626C53.4275 122.914 52.2779 125.165 55.5217 128.924Z" fill="#E2EAF8"/>
<path d="M83.5952 126.762L90.0828 100.271L85.4874 139.467L83.5952 126.762Z" fill="#000A63" fill-opacity="0.1"/>
</g>
<defs>
<linearGradient id="paint0_linear" x1="77.222" y1="60.8055" x2="84.2776" y2="66.327" gradientUnits="userSpaceOnUse">
<stop stop-color="#6E7DF1"/>
<stop offset="1" stop-color="#6E7DF1" stop-opacity="0"/>
</linearGradient>
<linearGradient id="paint1_linear" x1="70.8904" y1="9.57196" x2="127.985" y2="73.2443" gradientUnits="userSpaceOnUse">
<stop stop-color="#080E43"/>
<stop offset="1" stop-color="#000A63" stop-opacity="0"/>
</linearGradient>
<linearGradient id="paint2_linear" x1="83.325" y1="47.1465" x2="87.3797" y2="40.3886" gradientUnits="userSpaceOnUse">
<stop stop-color="#FFD3C4"/>
<stop offset="1" stop-color="#FFB398" stop-opacity="0"/>
</linearGradient>
<linearGradient id="paint3_linear" x1="65.9506" y1="71.7918" x2="65.9506" y2="34.2633" gradientUnits="userSpaceOnUse">
<stop offset="0.0159875" stop-color="#FFC2A9"/>
<stop offset="1" stop-color="#FF9595"/>
</linearGradient>
<linearGradient id="paint4_linear" x1="62.1165" y1="57.1858" x2="61.4296" y2="40.9285" gradientUnits="userSpaceOnUse">
<stop stop-color="#FFA889"/>
<stop offset="0.171875" stop-color="#FFCEBC" stop-opacity="0.828125"/>
<stop offset="0.322917" stop-color="#FFE3D9" stop-opacity="0"/>
<stop offset="0.416667" stop-color="#FFF0EB" stop-opacity="0.583333"/>
<stop offset="0.46875" stop-color="#FFB398" stop-opacity="0"/>
</linearGradient>
<linearGradient id="paint5_linear" x1="65.9506" y1="71.7918" x2="65.9506" y2="34.2633" gradientUnits="userSpaceOnUse">
<stop offset="0.0159875" stop-color="#FFC2A9"/>
<stop offset="1" stop-color="#FF9595"/>
</linearGradient>
<linearGradient id="paint6_linear" x1="65.2053" y1="49.8638" x2="75.4355" y2="49.8638" gradientUnits="userSpaceOnUse">
<stop stop-color="#CF6074"/>
<stop offset="1" stop-color="#FF817F"/>
</linearGradient>
<linearGradient id="paint7_linear" x1="71.6719" y1="50.6312" x2="68.3719" y2="50.6312" gradientUnits="userSpaceOnUse">
<stop stop-color="#0E1B6D"/>
<stop offset="1" stop-color="#002538"/>
</linearGradient>
<linearGradient id="paint8_linear" x1="63.3217" y1="30.8015" x2="65.1395" y2="52.1107" gradientUnits="userSpaceOnUse">
<stop stop-color="#F3918A"/>
<stop offset="1" stop-color="#F3918A" stop-opacity="0"/>
</linearGradient>
<linearGradient id="paint9_linear" x1="60.6585" y1="49.7928" x2="51.4634" y2="49.7928" gradientUnits="userSpaceOnUse">
<stop stop-color="#CF6074"/>
<stop offset="1" stop-color="#FF817F"/>
</linearGradient>
<linearGradient id="paint10_linear" x1="57.807" y1="50.4831" x2="54.8409" y2="50.4831" gradientUnits="userSpaceOnUse">
<stop stop-color="#0E1B6D"/>
<stop offset="1" stop-color="#002538"/>
</linearGradient>
<linearGradient id="paint11_linear" x1="57.6451" y1="17.6835" x2="67.0746" y2="47.6885" gradientUnits="userSpaceOnUse">
<stop stop-color="#6E7DF1"/>
<stop offset="1" stop-color="#6E7DF1" stop-opacity="0"/>
</linearGradient>
<linearGradient id="paint12_linear" x1="65.7546" y1="28.0979" x2="79.0174" y2="31.6935" gradientUnits="userSpaceOnUse">
<stop stop-color="#080E43"/>
<stop offset="1" stop-color="#000A63" stop-opacity="0"/>
</linearGradient>
<linearGradient id="paint13_linear" x1="49.8692" y1="34.1404" x2="53.9869" y2="48.9393" gradientUnits="userSpaceOnUse">
<stop stop-color="#09104A"/>
<stop offset="1" stop-color="#172070"/>
</linearGradient>
<linearGradient id="paint14_linear" x1="43.048" y1="77.8343" x2="50.3465" y2="119.192" gradientUnits="userSpaceOnUse">
<stop stop-color="#A5B4CC"/>
<stop offset="0.350112" stop-color="#A5B4CC" stop-opacity="0.649888"/>
<stop offset="1" stop-color="#A5B4CC" stop-opacity="0"/>
</linearGradient>
<linearGradient id="paint15_linear" x1="56.0232" y1="65.6706" x2="63.8623" y2="113.787" gradientUnits="userSpaceOnUse">
<stop stop-color="#000A63"/>
<stop offset="1" stop-color="#000A63" stop-opacity="0"/>
</linearGradient>
<linearGradient id="paint16_linear" x1="65.349" y1="85.134" x2="65.349" y2="176.501" gradientUnits="userSpaceOnUse">
<stop stop-color="#AEA8E8"/>
<stop offset="1" stop-color="#AEA8E8" stop-opacity="0"/>
</linearGradient>
<linearGradient id="paint17_linear" x1="106.977" y1="85.1328" x2="106.977" y2="145.683" gradientUnits="userSpaceOnUse">
<stop stop-color="white"/>
<stop offset="1" stop-color="white" stop-opacity="0"/>
</linearGradient>
<linearGradient id="paint18_linear" x1="90.3533" y1="94.8648" x2="93.0564" y2="120.545" gradientUnits="userSpaceOnUse">
<stop stop-color="#000A63"/>
<stop offset="0.505208" stop-color="#6C4FC0" stop-opacity="0.82"/>
</linearGradient>
<linearGradient id="paint19_linear" x1="90.0828" y1="124.06" x2="90.8937" y2="146.226" gradientUnits="userSpaceOnUse">
<stop stop-color="#A5B4CC"/>
<stop offset="1" stop-color="#A5B4CC" stop-opacity="0"/>
</linearGradient>
<linearGradient id="paint20_linear" x1="31.6948" y1="109.191" x2="31.6948" y2="131.897" gradientUnits="userSpaceOnUse">
<stop stop-color="#A5B4CC"/>
<stop offset="1" stop-color="#A5B4CC" stop-opacity="0"/>
</linearGradient>
<linearGradient id="paint21_linear" x1="74.9452" y1="139.467" x2="33.8573" y2="105.407" gradientUnits="userSpaceOnUse">
<stop stop-color="#81A7FF"/>
<stop offset="1" stop-color="white"/>
</linearGradient>
<linearGradient id="paint22_linear" x1="44.5348" y1="105.408" x2="44.5348" y2="112.166" gradientUnits="userSpaceOnUse">
<stop stop-color="#99B1FD"/>
<stop offset="0.375" stop-color="#5977D7"/>
<stop offset="1" stop-color="#1338AE" stop-opacity="0.61"/>
</linearGradient>
<linearGradient id="paint23_linear" x1="16.0165" y1="96.7585" x2="51.2926" y2="145.956" gradientUnits="userSpaceOnUse">
<stop stop-color="#000A63"/>
<stop offset="1" stop-color="#000A63" stop-opacity="0"/>
</linearGradient>
<linearGradient id="paint24_linear" x1="63.9845" y1="127.212" x2="57.2952" y2="115.7" gradientUnits="userSpaceOnUse">
<stop offset="0.0159875" stop-color="#FFC2A9"/>
<stop offset="1" stop-color="#FF9595"/>
</linearGradient>
<linearGradient id="paint25_linear" x1="63.9845" y1="127.212" x2="57.2952" y2="115.7" gradientUnits="userSpaceOnUse">
<stop offset="0.0159875" stop-color="#FFC2A9"/>
<stop offset="1" stop-color="#FF9595"/>
</linearGradient>
<linearGradient id="paint26_linear" x1="65.4015" y1="115.85" x2="70.2359" y2="124.17" gradientUnits="userSpaceOnUse">
<stop stop-color="#E87172"/>
<stop offset="1" stop-color="#E87172" stop-opacity="0"/>
</linearGradient>
<linearGradient id="paint27_linear" x1="52.5861" y1="120.968" x2="58.8843" y2="131.807" gradientUnits="userSpaceOnUse">
<stop stop-color="#E87172"/>
<stop offset="1" stop-color="#E87172" stop-opacity="0"/>
</linearGradient>
<linearGradient id="paint28_linear" x1="66.6001" y1="113.167" x2="65.2999" y2="115.807" gradientUnits="userSpaceOnUse">
<stop stop-color="white"/>
<stop offset="1" stop-color="white" stop-opacity="0"/>
</linearGradient>
</defs>
</svg>
