<svg width="137" height="137" viewBox="0 0 137 137" fill="none" xmlns="http://www.w3.org/2000/svg">
<mask id="mask0" mask-type="alpha" maskUnits="userSpaceOnUse" x="0" y="0" width="137" height="137">
<rect x="0.733154" y="0.5" width="136" height="136" fill="white"/>
</mask>
<g mask="url(#mask0)">
<path d="M80.6145 60.1966L60.6846 59.9727L58.6692 68.4821L83.3017 68.9299L80.6145 60.1966Z" fill="#A7B1DF"/>
<path d="M57.1018 79.0648L61.3565 59.8066H79.495L83.7497 79.0648L69.642 88.246L57.1018 79.0648Z" fill="#FF9D9A"/>
<mask id="mask1" mask-type="alpha" maskUnits="userSpaceOnUse" x="57" y="59" width="27" height="30">
<path d="M57.1018 79.0648L61.3565 59.8066H79.495L83.7497 79.0648L69.642 88.246L57.1018 79.0648Z" fill="#FF9D9A"/>
</mask>
<g mask="url(#mask1)">
<path d="M57.5495 66.7226C76.7181 69.9472 82.7045 62.0946 83.3017 57.7653L65.835 55.0781C55.0863 57.616 38.381 63.498 57.5495 66.7226Z" fill="url(#paint0_linear)"/>
</g>
<path d="M54.7444 48.2148C55.8971 43.4274 58.1667 31.626 59.3411 25.3215C62.4761 17.7078 78.8232 22.8583 80.3907 24.4258C81.7519 25.787 84.8019 43.3602 86.021 48.6948C86.2447 49.674 86.3406 50.7211 85.902 51.6246C84.507 54.4983 80.7253 59.9437 78.1514 61.5984C75.0163 63.6138 70.7616 63.8378 65.1633 62.7181C61.3177 61.949 57.3071 56.0617 55.116 52.0028C54.498 50.858 54.4399 49.4797 54.7444 48.2148Z" fill="url(#paint1_linear)"/>
<path d="M69.8658 56.8691C68.7909 57.0482 67.925 56.4958 67.6265 56.1973C67.8504 56.6451 68.6118 57.5409 69.8658 57.5409C71.1198 57.5409 71.7319 56.6451 71.8812 56.1973C71.6572 56.3466 70.9407 56.6899 69.8658 56.8691Z" fill="#E87172"/>
<path d="M61.1324 51.0475C60.8339 50.5997 60.0635 49.6589 59.7053 50.0171C59.2574 50.465 60.0128 51.2715 61.1324 51.0475Z" fill="#E87172"/>
<path d="M78.1512 51.2719C78.4498 50.8241 79.5007 49.7487 79.859 50.107C80.3069 50.5549 79.2708 51.4959 78.1512 51.2719Z" fill="#E87172"/>
<path d="M66.6471 52.4815C71.1258 53.3772 77.3212 51.5111 79.8591 50.4661C74.8649 53.9914 65.443 55.4332 60.601 50.914L59.9292 50.2422C60.3024 50.6154 62.1685 51.5858 66.6471 52.4815Z" fill="#E87172"/>
<path d="M67.1786 45.4503C67.716 44.9129 68.5968 40.897 68.97 38.9563C69.7944 37.3075 70.1149 40.1978 70.7615 42.7631L70.7681 42.7893C71.1 44.1061 71.2152 44.5634 72.1051 45.8982C71.6572 46.2714 70.6719 46.7939 69.4179 46.7939C67.8503 46.7939 66.5068 46.1221 67.1786 45.4503Z" fill="url(#paint2_linear)"/>
<path d="M68.97 34.9255C69.3283 35.463 69.0446 40.6731 68.2982 42.5392C64.1778 44.8681 58.7438 42.9124 57.9973 41.8674L58.6691 36.9409L67.1785 32.9102C67.6264 33.358 68.6117 34.3881 68.97 34.9255Z" fill="#F38F89" fill-opacity="0.8"/>
<path d="M71.267 34.9255C70.9087 35.463 72.312 39.3295 73.0584 41.1956C77.1788 43.5245 81.4357 43.1364 82.1821 42.0914L81.5678 36.9409L73.0584 32.9102C72.6106 33.358 71.6253 34.3881 71.267 34.9255Z" fill="#F38F89" fill-opacity="0.8"/>
<path d="M74.0629 37.5208C73.3895 38.1942 72.916 39.8751 72.9764 41.1428C72.9764 41.1428 73.6467 41.3186 73.8818 41.505C75.1725 42.5286 77.7437 42.6565 79.1338 41.8672C79.6142 41.5945 80.2204 41.1428 80.2204 41.1428C79.3149 38.6074 78.5181 37.6656 78.2283 37.5208C77.5039 36.9775 74.6063 36.9774 74.0629 37.5208Z" fill="url(#paint3_linear)"/>
<path d="M73.8912 35.5557C72.8046 35.7368 72.578 33.9356 72.9765 32.9939C76.5985 32.5593 78.9983 33.8533 80.8818 36.0265C81.0629 36.3525 81.1715 36.7147 81.3526 37.0769C79.1432 36.0265 76.8975 35.0486 73.8912 35.5557Z" fill="#131163"/>
<path d="M75.2184 38.1331C74.7741 38.2669 73.9226 40.1958 73.5524 41.1435C73.429 41.032 74.0161 38.5539 74.063 38.427C74.2481 37.9253 74.478 37.7986 75.2184 37.6313C75.9589 37.4641 77.4398 37.4641 78.1802 37.7986C78.7726 38.0662 79.8502 40.1401 80.2204 41.1435C79.5417 40.1958 78.3283 38.2669 78.1802 38.1331C77.9951 37.9658 75.7737 37.9658 75.2184 38.1331Z" fill="#02243D"/>
<path d="M75.3308 37.8824C74.4615 38.0273 73.8216 40.1311 73.5198 41.097C76.4174 42.8355 79.1339 41.8214 80.2206 41.097C79.7376 40.1311 78.6631 38.1631 78.2284 38.0182C77.6851 37.8371 76.4174 37.7013 75.3308 37.8824Z" fill="#FFEBED"/>
<path d="M74.6062 39.8749C74.6062 40.9706 75.5027 41.8671 76.5983 41.8671C77.694 41.8671 78.5905 40.9706 78.5905 39.8749C78.5905 38.7793 77.694 37.8828 76.5983 37.8828C75.5027 37.8828 74.6062 38.7793 74.6062 39.8749Z" fill="#2566F9"/>
<path d="M76.5983 41.2362C77.3502 41.2362 77.9596 40.6268 77.9596 39.875C77.9596 39.1231 77.3502 38.5137 76.5983 38.5137C75.8465 38.5137 75.2371 39.1231 75.2371 39.875C75.2371 40.6268 75.8465 41.2362 76.5983 41.2362Z" fill="url(#paint4_linear)"/>
<path d="M75.071 41.6347C74.8718 41.4023 75.6354 40.4726 75.9674 40.705C76.3327 40.9374 75.3698 41.9667 75.071 41.6347ZM77.4615 38.7793C77.2291 38.7793 77.0299 38.9785 77.0299 39.2109C77.0299 39.4433 77.2291 39.6426 77.4615 39.6426C77.694 39.6426 77.8932 39.4433 77.8932 39.2109C77.8932 38.9785 77.7272 38.7793 77.4615 38.7793Z" fill="white"/>
<path d="M65.959 37.5208C66.6325 38.1942 67.1059 39.8751 67.0456 41.1428C67.0456 41.1428 66.3752 41.3186 66.1401 41.505C64.8495 42.5286 62.2782 42.6565 60.8881 41.8672C60.4078 41.5945 59.8015 41.1428 59.8015 41.1428C60.7071 38.6074 61.5039 37.6656 61.7937 37.5208C62.5181 36.9775 65.4157 36.9774 65.959 37.5208Z" fill="url(#paint5_linear)"/>
<path d="M66.1308 35.5557C67.2174 35.7368 67.4439 33.9356 67.0455 32.9939C63.4235 32.5592 61.0237 33.8533 59.1402 36.0265C58.9591 36.3525 58.8504 36.7147 58.6693 37.0769C60.8788 36.0265 63.1245 35.0486 66.1308 35.5557Z" fill="#131163"/>
<path d="M64.8033 38.1331C65.2476 38.2669 66.0991 40.1958 66.4693 41.1435C66.5927 41.032 66.0056 38.5539 65.9588 38.427C65.7737 37.9253 65.5438 37.7986 64.8033 37.6313C64.0629 37.4641 62.582 37.4641 61.8415 37.7986C61.2492 38.0662 60.1715 40.1401 59.8013 41.1435C60.48 40.1958 61.6934 38.2669 61.8415 38.1331C62.0266 37.9658 64.248 37.9658 64.8033 38.1331Z" fill="#02243D"/>
<path d="M64.6912 37.8824C65.5605 38.0273 66.2004 40.1311 66.5022 41.097C63.6046 42.8355 60.888 41.8214 59.8014 41.097C60.2844 40.1311 61.3589 38.1631 61.7935 38.0182C62.3368 37.8371 63.6046 37.7013 64.6912 37.8824Z" fill="#FFEBED"/>
<path d="M65.4155 39.8749C65.4155 40.9706 64.5191 41.8671 63.4234 41.8671C62.3277 41.8671 61.4313 40.9706 61.4313 39.8749C61.4313 38.7793 62.3277 37.8828 63.4234 37.8828C64.5191 37.8828 65.4155 38.7793 65.4155 39.8749Z" fill="#2566F9"/>
<path d="M63.4234 41.2362C62.6716 41.2362 62.0621 40.6268 62.0621 39.875C62.0621 39.1231 62.6716 38.5137 63.4234 38.5137C64.1752 38.5137 64.7847 39.1231 64.7847 39.875C64.7847 40.6268 64.1752 41.2362 63.4234 41.2362Z" fill="url(#paint6_linear)"/>
<path d="M62.1613 41.6347C61.9621 41.4023 62.7258 40.4726 63.0578 40.705C63.423 40.9374 62.4601 41.9667 62.1613 41.6347ZM64.5519 38.7793C64.3195 38.7793 64.1203 38.9785 64.1203 39.2109C64.1203 39.4433 64.3195 39.6426 64.5519 39.6426C64.7843 39.6426 64.9835 39.4433 64.9835 39.2109C64.9835 38.9785 64.8175 38.7793 64.5519 38.7793Z" fill="white"/>
<path d="M72.1051 45.8982C69.4179 46.794 67.9996 46.2715 67.4025 45.8982C67.1786 45.6743 68.5222 45.6743 68.97 38.7324C68.2982 43.6589 66.7307 45.0025 66.7307 45.6743C66.7307 46.3461 67.4025 47.0179 68.7461 47.4658C70.0897 47.9136 70.0897 47.6897 72.1051 45.8982Z" fill="#E87172"/>
<path d="M82.0982 47.4451C83.5795 47.0482 84.5572 45.8936 84.2819 44.8662C84.0066 43.8388 82.5826 43.3278 81.1013 43.7247C79.62 44.1216 78.6423 45.2762 78.9176 46.3035C79.1929 47.3309 80.6169 47.842 82.0982 47.4451Z" fill="#E87172" fill-opacity="0.5"/>
<path d="M58.7082 47.4449C60.1895 47.8418 61.6135 47.3308 61.8888 46.3034C62.1641 45.276 61.1864 44.1214 59.7051 43.7245C58.2238 43.3276 56.7998 43.8387 56.5245 44.866C56.2492 45.8934 57.2269 47.048 58.7082 47.4449Z" fill="#E87172" fill-opacity="0.5"/>
<path d="M79.0471 23.7282C72.0604 26.7737 65.8351 24.3189 63.5958 22.9753L60.4991 25.1612C60.0423 25.4837 59.7227 25.9654 59.603 26.5116L56.8779 38.9556L55.0864 36.7163V24.8479C55.0863 21.1223 57.7736 20.736 60.9086 20.2882C60.192 18.4967 61.5058 15.6602 62.2522 14.4659C64.7155 10.5245 83.9736 12.5318 85.989 20.2882L85.541 36.7163C85.0932 37.2388 84.6902 37.9788 83.9736 38.8745C82.1822 27.759 79.9428 24.624 79.0471 23.7282Z" fill="#172070"/>
<path d="M53.621 36.1929C55.0542 35.4763 56.4575 37.5365 56.98 38.6561L55.1885 47.1655C54.4421 45.8966 53.1695 43.1771 52.9492 42.6869C52.3797 41.4193 51.8296 37.0886 53.621 36.1929Z" fill="#FFA48F"/>
<path d="M54.3951 38.2832C54.9325 38.2832 55.3655 40.8211 55.5148 42.09C55.2908 41.5675 54.7982 40.4777 54.619 40.2986C54.4399 40.1194 53.9472 41.269 53.7233 41.8661L53.9472 39.8507L53.0515 40.2986C53.2754 39.6268 53.8577 38.2832 54.3951 38.2832Z" fill="#E87172"/>
<mask id="mask2" mask-type="alpha" maskUnits="userSpaceOnUse" x="52" y="36" width="5" height="12">
<path d="M53.621 36.1929C55.0542 35.4763 56.4575 37.5365 56.98 38.6561L55.1885 47.1655C54.4421 45.8966 53.1695 43.1771 52.9492 42.6869C52.3797 41.4193 51.8296 37.0886 53.621 36.1929Z" fill="#FFA48F"/>
</mask>
<g mask="url(#mask2)">
<path d="M54.1711 36.9393C53.6337 36.7602 52.6036 37.6111 52.1558 38.059L52.8276 36.4914L54.3951 35.5957L55.7387 36.4914L57.3062 38.7307L56.6344 41.4179C56.0372 39.9997 54.7086 37.1185 54.1711 36.9393Z" fill="url(#paint7_linear)"/>
</g>
<path d="M87.1085 36.1929C85.6753 35.4763 84.272 37.5365 83.7495 38.6561L85.541 47.1655C86.2874 45.8966 87.56 43.1771 87.7803 42.6869C88.3498 41.4193 88.8999 37.0886 87.1085 36.1929Z" fill="#FFA48F"/>
<path d="M86.3344 38.2832C85.797 38.2832 85.364 40.8211 85.2147 42.09C85.4387 41.5675 85.9313 40.4777 86.1105 40.2986C86.2896 40.1194 86.7823 41.269 87.0062 41.8661L86.7823 39.8507L87.678 40.2986C87.454 39.6268 86.8718 38.2832 86.3344 38.2832Z" fill="#E87172"/>
<mask id="mask3" mask-type="alpha" maskUnits="userSpaceOnUse" x="83" y="36" width="6" height="12">
<path d="M87.1085 36.1929C85.6753 35.4763 84.272 37.5365 83.7495 38.6561L85.541 47.1655C86.2874 45.8966 87.56 43.1771 87.7803 42.6869C88.3498 41.4193 88.8999 37.0886 87.1085 36.1929Z" fill="#FFA48F"/>
</mask>
<g mask="url(#mask3)">
<path d="M86.5583 36.9393C87.0958 36.7602 88.1259 37.6111 88.5737 38.059L87.9019 36.4914L86.3344 35.5957L84.9908 36.4914L83.4233 38.7307L84.0951 41.4179C84.6922 39.9997 86.0209 37.1185 86.5583 36.9393Z" fill="url(#paint8_linear)"/>
</g>
<mask id="mask4" mask-type="alpha" maskUnits="userSpaceOnUse" x="55" y="12" width="31" height="27">
<path d="M79.0471 23.7282C72.0604 26.7737 65.8351 24.3189 63.5958 22.9753L60.4991 25.1612C60.0423 25.4837 59.7227 25.9654 59.603 26.5116L56.8779 38.9556L55.0864 36.7163V24.8479C55.0863 21.1223 57.7736 20.736 60.9086 20.2882C60.192 18.4967 61.5058 15.6602 62.2522 14.4659C64.7155 10.5245 83.9736 12.5318 85.989 20.2882L85.541 36.7163C85.0932 37.2388 84.6902 37.9788 83.9736 38.8745C82.1822 27.759 79.9428 24.624 79.0471 23.7282Z" fill="#454C8A"/>
</mask>
<g mask="url(#mask4)">
<path d="M63.3718 23.0562C64.6258 24.3102 72.4037 27.4602 77.2556 26.863C85.8726 25.9141 87.6263 21.2548 78.1513 22.6083C71.8812 23.504 78.1513 15.2186 67.1787 13.6511C64.0436 13.2032 62.0282 17.9058 61.8043 19.0254C61.5803 20.1451 61.8043 21.4887 63.3718 23.0562Z" fill="url(#paint9_linear)"/>
<path d="M59.117 23.7291C59.6545 21.7585 61.431 21.4151 62.2521 21.4897L63.5956 23.0573L56.4298 40.7479C56.3552 39.1804 58.5796 25.6997 59.117 23.7291Z" fill="url(#paint10_linear)"/>
<path d="M83.0778 23.9534C84.511 25.3866 84.2721 34.7022 83.9735 39.1808L78.3752 23.9534C79.3456 23.3563 81.6446 22.5203 83.0778 23.9534Z" fill="url(#paint11_linear)"/>
<path d="M69.1941 16.2756C64.8946 15.5591 62.7747 18.515 62.2522 20.0825C62.4015 18.8135 63.2823 16.0069 65.6112 14.932C68.5223 13.5884 72.1052 16.0517 77.2556 17.8432C80.2798 18.895 81.5588 18.9658 81.9958 18.7814C82.0868 18.6748 82.1478 18.5835 82.1821 18.5149C82.202 18.6142 82.1542 18.7146 81.9958 18.7814C81.6904 19.1391 81.047 19.6684 79.9428 20.0825C78.1513 20.7543 74.5684 17.1714 69.1941 16.2756Z" fill="url(#paint12_linear)"/>
<path d="M56.43 32.6849C57.3257 31.5652 56.2061 27.7584 55.9821 25.2951C55.7729 22.9933 58.0606 22.1796 59.7889 21.4883C59.1171 22.1601 57.6392 24.2202 57.1018 25.2951C56.43 26.6387 58.4453 31.5652 56.43 32.6849Z" fill="url(#paint13_linear)"/>
<path d="M70.0896 17.6833C67.0441 16.7876 62.8492 20.1465 62.0281 21.2661C63.1477 20.8182 67.6264 18.5342 69.4178 18.3551C71.6571 18.1311 74.3443 20.8183 77.7033 20.3704C76.1358 20.3704 73.8965 18.803 70.0896 17.6833Z" fill="url(#paint14_linear)"/>
</g>
<path d="M82.406 20.5938C83.451 21.3402 85.4515 23.5496 85.0932 26.416C85.012 27.0656 84.9293 27.6508 84.8481 28.1726C84.7289 29.2627 84.4931 30.3231 84.2695 31.1004C84.2416 31.202 84.2174 31.2826 84.1975 31.3425C84.2212 31.2653 84.2453 31.1845 84.2695 31.1004C84.4027 30.6138 84.6191 29.6457 84.8481 28.1726C85.0405 26.4141 84.9293 24.5784 83.9735 23.7288C82.3612 22.2956 82.2567 21.0416 82.406 20.5938Z" fill="url(#paint15_linear)"/>
<path d="M69.9896 78.7838C64.0525 78.557 59.6888 67.3633 59.6888 67.3633L59.4648 68.259C59.4648 68.259 63.9121 79.827 70.2136 80.1274C76.8252 80.4426 82.0819 69.3787 82.0819 69.3787L81.4101 68.9308C81.4101 68.9308 76.1886 79.0206 69.9896 78.7838Z" fill="#5A8DFF"/>
<path d="M69.9895 79.6806C63.9329 79.4333 59.4647 68.0352 59.4647 68.0352L51.4032 70.116L42.8938 174.179H100.22L96.1895 72.2155L81.41 68.2591C81.41 68.2591 76.2452 79.936 69.9895 79.6806Z" fill="#2566F9"/>
<path d="M65.8349 109.91C57.7734 96.1153 56.9523 75.2001 57.5495 66.4668L46.1289 74.9762L49.2639 130.735L51.2793 170.819L95.3939 168.132L86.4366 117.747C81.0623 113.492 73.8965 123.704 65.8349 109.91Z" fill="url(#paint16_linear)"/>
<path d="M85.7649 145.516C73.2248 141.261 55.3102 111.926 54.1906 110.135C51.0555 114.166 46.6665 127.601 54.1906 149.099C61.7147 170.596 75.9866 164.625 82.182 158.952C87.5564 155.891 95.7971 148.92 85.7649 145.516Z" fill="url(#paint17_linear)"/>
<path d="M107.895 77.0502L88.8123 68.4824L85.0931 98.8106L74.7922 126.705V174.5H109.054L102.053 112.49L107.895 77.0502Z" fill="#DBE1EB"/>
<path d="M80.3906 60.1973L84.1975 61.9887L86.2128 69.6024L81.4101 68.2588L80.3906 60.1973Z" fill="#A7B1DF"/>
<path d="M77.0316 127.824L94.9461 91.0996L74.7922 126.929V162.758L86.4367 119.987L78.5991 130.736L77.0316 127.824Z" fill="url(#paint18_linear)"/>
<path d="M96.9615 79.6798C95.9165 76.694 93.5577 70.8569 93.3786 70.4986L90.6914 69.3789L88.676 82.143L89.7957 98.0422L96.0658 91.1003L91.5871 86.1738L96.9615 79.6798Z" fill="url(#paint19_linear)"/>
<path d="M109.696 77.2011C104.301 77.2011 105.232 76.0957 102.502 76.0957L100.544 111.4C104.799 123.569 102.502 123.121 107.262 134.318L91.3631 156.935L109.054 174.178L119.788 137.594C119.945 137.057 120.002 136.512 119.953 135.955C118.356 117.822 115.009 77.2011 109.696 77.2011Z" fill="#DBE1EB"/>
<path d="M100.992 107.446C101.53 105.117 103.455 91.2484 104.351 84.6051L105.471 81.2461C104.724 89.6062 103.814 107.939 106.143 114.388C108.472 120.837 107.859 130.287 107.486 134.318L104.799 127.6L102.56 117.299L105.023 139.244L89.7957 150.217L100.992 117.075C100.768 114.836 100.455 109.775 100.992 107.446Z" fill="url(#paint20_linear)"/>
<path d="M107.486 134.319C107.412 132.304 107.262 127.601 114.204 125.586C112.008 127.469 109.994 130.291 108.977 131.915C109.877 130.625 111.9 128.73 115.1 128.273C112.771 129.885 110.099 131.931 109.054 132.752C110.174 132.155 114.607 130.333 117.115 130.512C109.278 131.856 108.233 134.17 107.486 134.319Z" fill="url(#paint21_linear)"/>
<path d="M39.0215 112.267L33.3648 76.7692C33.3648 76.7692 34.2875 75.3489 35.1562 74.7538C36.0051 74.1723 37.6195 73.8187 37.6195 73.8187L52.2626 68.2598L55.9819 98.588L66.2827 126.482V174.277H32.0212L39.0215 112.267Z" fill="#DBE1EB"/>
<path d="M60.6843 59.9746L56.8775 61.7661L54.8621 69.3797L59.4645 68.0361L60.6843 59.9746Z" fill="#A7B1DF"/>
<path d="M64.0434 127.602L46.1289 90.877L66.2827 126.706V162.535L54.6383 119.764L62.4759 130.513L64.0434 127.602Z" fill="url(#paint22_linear)"/>
<path d="M40.0827 116.854C40.3066 114.615 40.6201 109.554 40.0827 107.225C38.0891 98.586 38.8606 95.7209 36.0519 87.2949L21.0485 114.839L37.6194 103.418L39.1869 112.151L38.5152 117.078L36.0519 139.023L43.4417 128.05L40.0827 116.854Z" fill="url(#paint23_linear)"/>
<path d="M49.2908 70.5157C43.731 76.4547 47.9602 91.623 49.5421 96.2762L47.77 96.8145C47.77 96.8145 45.1739 87.7145 45.1813 79.8434C45.1847 73.0675 48.2214 69.0732 49.9662 69.5531L49.2908 70.5157Z" fill="#131163"/>
<path d="M48.7803 92.384C49.0344 93.3589 49.2499 94.3454 49.5157 95.3587C48.576 95.7283 48.0064 96.0697 47.055 96.4008C46.858 95.1982 46.661 93.9957 46.464 92.7932C47.2194 92.6478 48.0133 92.4908 48.7803 92.384Z" fill="url(#paint24_linear)"/>
<path opacity="0.3" d="M48.5235 93.8905C48.6927 93.755 48.8503 93.5809 48.9961 93.3683C49.1565 94.0349 49.3169 94.7015 49.4774 95.3681C48.5377 95.7377 47.9681 96.0791 47.0167 96.4102C46.9533 95.9245 46.8514 95.4505 46.788 94.9648C46.8919 94.8912 46.9689 94.8678 47.0728 94.7941C47.577 94.5147 48.0812 94.2353 48.5235 93.8905Z" fill="url(#paint25_linear)"/>
<path opacity="0.3" d="M52.6342 108.255C56.2512 107.156 58.2926 103.334 57.1938 99.7165C56.095 96.0996 52.2721 94.0582 48.6551 95.1569C45.0381 96.2557 42.9967 100.079 44.0955 103.696C45.1943 107.313 49.0172 109.354 52.6342 108.255Z" fill="url(#paint26_linear)"/>
<path d="M53.5181 106.919C56.6292 105.103 57.6788 101.108 55.8625 97.9971C54.0462 94.8861 50.0518 93.8364 46.9407 95.6527C43.8296 97.469 42.78 101.463 44.5963 104.575C46.4126 107.686 50.407 108.735 53.5181 106.919Z" fill="white"/>
<path opacity="0.3" d="M51.9199 106.872C55.005 105.934 56.7462 102.674 55.809 99.5886C54.8718 96.5035 51.611 94.7623 48.526 95.6995C45.4409 96.6367 43.6997 99.8974 44.6369 102.983C45.5741 106.068 48.8348 107.809 51.9199 106.872Z" fill="url(#paint27_linear)"/>
<path d="M45.9467 102.584C45.2211 100.196 46.5622 97.6844 48.9507 96.9588C51.3392 96.2332 53.8506 97.5742 54.5762 99.9627C55.3018 102.351 53.9607 104.863 51.5722 105.588C49.1837 106.314 46.6723 104.973 45.9467 102.584ZM46.8328 102.315C47.4063 104.203 49.4037 105.237 51.2528 104.675C53.1405 104.102 54.1748 102.104 53.6131 100.255C53.0513 98.4062 51.0422 97.3333 49.1931 97.8951C47.3439 98.4568 46.2593 100.427 46.8328 102.315Z" fill="#131163"/>
<path opacity="0.3" d="M48.8745 101.696C49.0968 102.428 49.9005 102.857 50.6324 102.635C51.3644 102.412 51.7935 101.609 51.5712 100.877C51.3488 100.145 50.5452 99.7157 49.8132 99.938C49.0812 100.16 48.6521 100.964 48.8745 101.696Z" fill="url(#paint28_linear)"/>
<path opacity="0.3" d="M84.5584 120.381C84.8805 116.757 85.726 109.832 87.5379 104.316L87.256 104.276C88.3029 101.095 89.6718 98.3171 91.4433 96.9079C92.3694 96.1429 93.4162 95.7806 94.4631 95.7806C94.5033 91.9959 94.6241 87.6072 92.5707 82.8965C90.1952 77.3805 87.2158 76.4947 87.2158 76.4947L86.2495 75.6895C94.0202 76.8571 96.3151 89.5398 95.5099 95.9014C96.5567 96.1832 97.4828 96.7871 98.2075 97.7937C99.5764 99.6458 100.18 102.665 100.382 106.048L100.1 106.007C100.422 111.805 99.4556 118.69 98.8517 122.314C98.5296 124.166 96.8385 125.414 95.0267 125.172C94.9865 125.172 94.9462 125.172 94.9462 125.172L94.7851 125.132C93.9799 125.535 92.4499 125.494 92.5707 124.287C92.7317 123.079 94.2617 123.441 94.9059 124.045L95.067 124.085C96.3554 124.327 97.5633 123.401 97.7646 122.112C98.2477 119.254 99.3348 111.886 98.9725 105.846L98.6906 105.806C98.3685 101.337 97.362 99.4042 96.8788 98.76C96.3151 97.9547 95.5904 97.5119 94.7449 97.3911C93.8994 97.2703 93.0941 97.5119 92.3291 98.1561C90.9199 99.2834 89.7523 101.578 88.7457 104.477L88.4639 104.437C86.5716 110.154 85.726 117.563 85.4845 120.462C85.3637 121.75 86.2897 122.958 87.5781 123.079H87.7392C88.5444 122.676 90.1147 122.716 89.9536 123.924C89.7926 125.132 88.3029 124.77 87.6184 124.166H87.4573C87.4171 124.166 87.3768 124.166 87.3768 124.166C85.726 123.884 84.3974 122.233 84.5584 120.381Z" fill="url(#paint29_linear)"/>
<path d="M95.3084 123.964C95.4292 123.159 92.8524 122.072 92.6511 123.642C92.4497 125.213 95.2279 124.77 95.3084 123.964Z" fill="white"/>
<path d="M87.4572 122.958C87.578 122.153 90.3158 121.791 90.1145 123.321C89.9132 124.851 87.3767 123.763 87.4572 122.958Z" fill="white"/>
<path d="M87.5379 123.48C87.5782 123.48 87.6184 123.48 87.6184 123.48L88.2224 123.561C88.5042 123.601 88.786 123.36 88.8263 123.078C88.8666 122.796 88.6653 122.514 88.3834 122.514L87.7795 122.434C86.4911 122.313 85.565 121.145 85.6858 119.857C86.0884 115.589 87.7392 101.296 92.3694 97.6317C93.1747 96.9875 94.0605 96.7057 94.9865 96.8265C95.9125 96.9473 96.6775 97.4304 97.2815 98.2759C100.784 103.027 98.6907 117.24 97.9659 121.508C97.7646 122.796 96.5568 123.682 95.2683 123.44L94.6644 123.36C94.3826 123.319 94.1007 123.521 94.0605 123.803C94.0202 124.084 94.2215 124.366 94.5034 124.406L95.1073 124.487C95.1476 124.487 95.1878 124.487 95.1878 124.487C96.9996 124.729 98.6907 123.48 99.0128 121.669C99.9791 116.112 101.791 102.624 98.1673 97.6317C97.362 96.5446 96.3554 95.9407 95.1475 95.7797C93.9397 95.6186 92.8123 95.981 91.7252 96.7862C86.8937 100.651 85.1624 114.139 84.639 119.776C84.3974 121.628 85.7261 123.239 87.5379 123.48Z" fill="#A8B3E9"/>
<path d="M91.4835 96.5851C92.4095 95.8201 93.4563 95.4577 94.5032 95.4577C94.5434 91.7133 94.8253 87.2844 92.7719 82.6542C90.3964 77.2187 87.2559 76.4537 87.2559 76.4537L86.2896 75.6484C94.0603 76.8161 96.3552 89.2975 95.55 95.5785C96.5968 95.8201 97.5229 96.4643 98.2476 97.4708C99.6165 99.3229 100.22 102.302 100.422 105.604L98.8113 105.403C98.4892 100.974 97.4826 99.0813 96.9994 98.4371C96.4358 97.6319 95.711 97.2293 94.8655 97.1085C94.02 96.9877 93.2147 97.2293 92.4498 97.8332C91.0406 98.9606 89.8729 101.215 88.8664 104.074L87.2559 103.873C88.343 100.732 89.7119 98.0345 91.4835 96.5851Z" fill="#131163"/>
<path d="M51.8734 84.5565C50.8317 83.4855 49.712 82.5898 46.0317 78.7148C47.2585 74.3335 50.4286 65.0783 53.2949 63.1077C56.1612 61.1371 59.3411 60.1219 60.6847 59.9727C59.565 61.0923 57.3257 61.0923 56.8778 61.988C56.5611 62.6214 53.2949 91.7709 57.7736 100.952C61.3565 108.297 65.0692 121.21 66.283 126.704C59.7922 115.281 45.2022 91.7685 46.0317 90.7876C47.4727 89.0838 50.1599 86.8445 51.8734 84.5565Z" fill="#F6F8FA"/>
<path d="M89.2018 84.7811C90.2435 83.7101 91.3632 82.8144 95.0435 78.9394C93.8167 74.5581 90.6466 65.3029 87.7803 63.3323C84.9139 61.3617 81.7341 60.3466 80.3905 60.1973C81.5102 61.3169 83.7495 61.3169 84.1974 62.2127C84.5141 62.846 87.7803 91.9956 83.3016 101.177C79.7187 108.522 76.006 121.434 74.7922 126.929C81.283 115.505 95.873 91.9931 95.0435 91.0122C93.6025 89.3084 90.9153 87.0691 89.2018 84.7811Z" fill="#F6F8FA"/>
<path d="M66.2828 161.863L52.8469 113.27L45.6811 128.049L39.411 137.678L32.0212 174.179H66.2828V161.863Z" fill="url(#paint30_linear)"/>
<path d="M39.859 72.9609C39.8004 74.9531 39.9166 79.751 41.0957 84.755C42.5659 89.1425 43.4662 91.9401 42.3222 88.8601C41.8215 87.5119 41.4187 86.1257 41.0957 84.755C39.9759 81.413 38.5253 77.1486 37.3958 73.8567L39.859 72.9609Z" fill="#CDCFEB"/>
<path d="M26.8436 82.9943C28.6628 78.4462 33.413 75.7932 35.5607 75.0352L39.3507 94.7434V137.5L18 139C18.1263 137.737 25.0244 87.5423 26.8436 82.9943Z" fill="#DBE1EB"/>
</g>
<defs>
<linearGradient id="paint0_linear" x1="66.0455" y1="55.0781" x2="67.1786" y2="70.7216" gradientUnits="userSpaceOnUse">
<stop stop-color="#E87172"/>
<stop offset="1" stop-color="#E87172" stop-opacity="0"/>
</linearGradient>
<linearGradient id="paint1_linear" x1="70.3433" y1="63.1177" x2="70.3433" y2="27.0666" gradientUnits="userSpaceOnUse">
<stop offset="0.0159875" stop-color="#FFC2A9"/>
<stop offset="1" stop-color="#FF9595"/>
</linearGradient>
<linearGradient id="paint2_linear" x1="69.8658" y1="45.2264" x2="69.8658" y2="37.3888" gradientUnits="userSpaceOnUse">
<stop stop-color="#FFA889"/>
<stop offset="0.171875" stop-color="#FFCEBC" stop-opacity="0.828125"/>
<stop offset="0.416667" stop-color="#FFF0EB" stop-opacity="0.583333"/>
<stop offset="1" stop-color="#FFB398" stop-opacity="0"/>
</linearGradient>
<linearGradient id="paint3_linear" x1="80.3258" y1="37.6376" x2="73.2716" y2="39.3646" gradientUnits="userSpaceOnUse">
<stop stop-color="#CF6074"/>
<stop offset="1" stop-color="#FF817F"/>
</linearGradient>
<linearGradient id="paint4_linear" x1="77.9623" y1="39.8693" x2="75.2295" y2="39.8693" gradientUnits="userSpaceOnUse">
<stop stop-color="#0E1B6D"/>
<stop offset="1" stop-color="#002538"/>
</linearGradient>
<linearGradient id="paint5_linear" x1="59.6962" y1="37.6376" x2="66.7503" y2="39.3646" gradientUnits="userSpaceOnUse">
<stop stop-color="#CF6074"/>
<stop offset="1" stop-color="#FF817F"/>
</linearGradient>
<linearGradient id="paint6_linear" x1="62.0594" y1="39.8693" x2="64.7923" y2="39.8693" gradientUnits="userSpaceOnUse">
<stop stop-color="#0E1B6D"/>
<stop offset="1" stop-color="#002538"/>
</linearGradient>
<linearGradient id="paint7_linear" x1="56.1865" y1="37.835" x2="52.8276" y2="32.2367" gradientUnits="userSpaceOnUse">
<stop stop-color="#FFD3C4"/>
<stop offset="1" stop-color="#FFB398" stop-opacity="0"/>
</linearGradient>
<linearGradient id="paint8_linear" x1="84.543" y1="37.835" x2="87.9019" y2="32.2367" gradientUnits="userSpaceOnUse">
<stop stop-color="#FFD3C4"/>
<stop offset="1" stop-color="#FFB398" stop-opacity="0"/>
</linearGradient>
<linearGradient id="paint9_linear" x1="63.8197" y1="19.6972" x2="75.2402" y2="27.0869" gradientUnits="userSpaceOnUse">
<stop stop-color="#040A3A"/>
<stop offset="1" stop-color="#051066" stop-opacity="0"/>
</linearGradient>
<linearGradient id="paint10_linear" x1="61.1135" y1="21.4805" x2="55.5341" y2="39.6282" gradientUnits="userSpaceOnUse">
<stop stop-color="#080E43"/>
<stop offset="1" stop-color="#000A63" stop-opacity="0"/>
</linearGradient>
<linearGradient id="paint11_linear" x1="81.2876" y1="23.1621" x2="81.2876" y2="39.1808" gradientUnits="userSpaceOnUse">
<stop stop-color="#080D3D"/>
<stop offset="1" stop-color="#000A63" stop-opacity="0"/>
</linearGradient>
<linearGradient id="paint12_linear" x1="72.2193" y1="14.5469" x2="72.2193" y2="20.1658" gradientUnits="userSpaceOnUse">
<stop stop-color="#6E7DF1"/>
<stop offset="1" stop-color="#6E7DF1" stop-opacity="0"/>
</linearGradient>
<linearGradient id="paint13_linear" x1="57.8788" y1="21.4883" x2="57.8788" y2="32.6849" gradientUnits="userSpaceOnUse">
<stop stop-color="#606DD8"/>
<stop offset="1" stop-color="#606DD8" stop-opacity="0"/>
</linearGradient>
<linearGradient id="paint14_linear" x1="70.7614" y1="17.4601" x2="70.7614" y2="20.4209" gradientUnits="userSpaceOnUse">
<stop stop-color="#6E7DF1"/>
<stop offset="1" stop-color="#6E7DF1" stop-opacity="0"/>
</linearGradient>
<linearGradient id="paint15_linear" x1="83.7463" y1="20.5938" x2="83.7463" y2="31.3425" gradientUnits="userSpaceOnUse">
<stop stop-color="#5965CD"/>
<stop offset="1" stop-color="#5965CD" stop-opacity="0"/>
</linearGradient>
<linearGradient id="paint16_linear" x1="70.7614" y1="66.4668" x2="70.7614" y2="170.819" gradientUnits="userSpaceOnUse">
<stop stop-color="#1F53CA"/>
<stop offset="1" stop-color="#1F53CA" stop-opacity="0"/>
</linearGradient>
<linearGradient id="paint17_linear" x1="57.1017" y1="137.007" x2="70.2639" y2="164.268" gradientUnits="userSpaceOnUse">
<stop stop-color="#194CBF"/>
<stop offset="1" stop-color="#2566F9" stop-opacity="0"/>
</linearGradient>
<linearGradient id="paint18_linear" x1="66.2828" y1="172.163" x2="95.8418" y2="78.3355" gradientUnits="userSpaceOnUse">
<stop stop-color="#A5B4CC"/>
<stop stop-color="#A5B4CC"/>
<stop stop-color="#A5B4CC"/>
<stop offset="0.0001" stop-color="#A5B4CC"/>
<stop offset="1" stop-color="#A5B4CC" stop-opacity="0"/>
</linearGradient>
<linearGradient id="paint19_linear" x1="92.3709" y1="69.155" x2="89.7957" y2="86.3977" gradientUnits="userSpaceOnUse">
<stop stop-color="#A5B4CC"/>
<stop offset="1" stop-color="#A5B4CC" stop-opacity="0"/>
</linearGradient>
<linearGradient id="paint20_linear" x1="103.008" y1="81.694" x2="102.784" y2="145.962" gradientUnits="userSpaceOnUse">
<stop stop-color="#A5B4CC"/>
<stop offset="1" stop-color="#A5B4CC" stop-opacity="0"/>
</linearGradient>
<linearGradient id="paint21_linear" x1="113.532" y1="123.794" x2="111.404" y2="134.095" gradientUnits="userSpaceOnUse">
<stop stop-color="#A5B4CC"/>
<stop offset="1" stop-color="#A5B4CC" stop-opacity="0"/>
</linearGradient>
<linearGradient id="paint22_linear" x1="74.7921" y1="171.94" x2="45.2332" y2="78.1128" gradientUnits="userSpaceOnUse">
<stop stop-color="#A5B4CC"/>
<stop stop-color="#A5B4CC"/>
<stop stop-color="#A5B4CC"/>
<stop offset="0.0001" stop-color="#A5B4CC"/>
<stop offset="1" stop-color="#A5B4CC" stop-opacity="0"/>
</linearGradient>
<linearGradient id="paint23_linear" x1="38.0673" y1="51.9137" x2="38.2912" y2="145.741" gradientUnits="userSpaceOnUse">
<stop stop-color="#A5B4CC"/>
<stop offset="1" stop-color="#A5B4CC" stop-opacity="0"/>
</linearGradient>
<linearGradient id="paint24_linear" x1="47.4394" y1="92.552" x2="50.459" y2="104.377" gradientUnits="userSpaceOnUse">
<stop stop-color="#C8BDF6"/>
<stop offset="1" stop-color="#F3EDFB"/>
</linearGradient>
<linearGradient id="paint25_linear" x1="47.7223" y1="93.6843" x2="49.7716" y2="101.71" gradientUnits="userSpaceOnUse">
<stop stop-color="#9D68C2"/>
<stop offset="1" stop-color="#CCEDFF"/>
</linearGradient>
<linearGradient id="paint26_linear" x1="57.1976" y1="99.698" x2="44.0951" y2="103.678" gradientUnits="userSpaceOnUse">
<stop stop-color="#9D68C2"/>
<stop offset="1" stop-color="#CCEDFF"/>
</linearGradient>
<linearGradient id="paint27_linear" x1="53.8269" y1="106.394" x2="48.3872" y2="98.6631" gradientUnits="userSpaceOnUse">
<stop stop-color="#9D68C2"/>
<stop offset="1" stop-color="white"/>
</linearGradient>
<linearGradient id="paint28_linear" x1="51.7484" y1="103.654" x2="48.9862" y2="99.3401" gradientUnits="userSpaceOnUse">
<stop stop-color="#9D68C2"/>
<stop offset="1" stop-color="#CCEDFF"/>
</linearGradient>
<linearGradient id="paint29_linear" x1="100.454" y1="100.504" x2="84.5621" y2="100.504" gradientUnits="userSpaceOnUse">
<stop stop-color="#9D68C2"/>
<stop offset="1" stop-color="#CCEDFF"/>
</linearGradient>
<linearGradient id="paint30_linear" x1="88.0041" y1="167.685" x2="36.2759" y2="146.635" gradientUnits="userSpaceOnUse">
<stop stop-color="#B4B0EA"/>
<stop offset="1" stop-color="#B4B0EA" stop-opacity="0"/>
</linearGradient>
</defs>
</svg>
